# xmcd
#
# Track frame offsets:
#	183
#	13295
#	25953
#	34573
#	44668
#	55940
#	65720
#	75373
#	90238
#	102453
#	112263
#	123273
#	138825
#	151470
#	161228
#	171928
#
# Disc length: 2452
#
# Revision: 2
# Processed by: cddbd v1.5.1PL0 Copyright (c) Steve Scherf et al.
# Submitted via: EasyCDDAExtractor 6.0.0.1
# Normalized: r1:DSETVAR1
#
DISCID=d7099210
DTITLE=Various Artist - Country Music Disc 2
DYEAR=1900
DGENRE=Country
TTITLE0=Boxcar Willie - T For Texas
TTITLE1=Johnny Cash - Folsom Prison Blues
TTITLE2=Conway Twitty - Blue Is The Way I Feel
TTITLE3=Faron Young - Hello Walls
TTITLE4=Patsy Cline - Just Out Of Reach
TTITLE5=Dolly Parton - Release Me
TTITLE6=Ray Pillow - We're Together Again
TTITLE7=Jennaie C. Riley - Harper Valley P.T.A.
TTITLE8=Johnny Paycheck_ - Take This Job And Shove It
TTITLE9=Hank Locklin - Please Help Me I'm Falling
TTITLE10=Don David Jr. - Minnesota Bay
TTITLE11=Johnny Russel_ - Luckenbach Texas
TTITLE12=Freddy Fender - Silver Wings
TTITLE13=Ned Miller - From A Jack To A King
TTITLE14=Waylon Jennings - Dream Baby
TTITLE15=Dave Dudley - The Wayward Wind
EXTD=ID3G: 2
EXTT0=
EXTT1=
EXTT2=
EXTT3=
EXTT4=
EXTT5=
EXTT6=
EXTT7=
EXTT8=
EXTT9=
EXTT10=
EXTT11=
EXTT12=
EXTT13=
EXTT14=
EXTT15=
PLAYORDER=
